<svg width="20" height="20" viewBox="0 0 20 20" fill="none" xmlns="http://www.w3.org/2000/svg">
<path d="M14.1667 17.2084H5.83332C4.4074 17.2084 3.3507 16.7999 2.65042 16.0997C1.95014 15.3994 1.54166 14.3427 1.54166 12.9167V7.08342C1.54166 5.65749 1.95014 4.60079 2.65042 3.90051C3.3507 3.20023 4.4074 2.79175 5.83332 2.79175H14.1667C15.5926 2.79175 16.6493 3.20023 17.3496 3.90051C18.0498 4.60079 18.4583 5.65749 18.4583 7.08342V12.9167C18.4583 14.3427 18.0498 15.3994 17.3496 16.0997C16.6493 16.7999 15.5926 17.2084 14.1667 17.2084ZM5.83332 3.04175C4.56817 3.04175 3.5313 3.34917 2.81519 4.06528C2.09907 4.78139 1.79166 5.81826 1.79166 7.08342V12.9167C1.79166 14.1819 2.09907 15.2188 2.81519 15.9349C3.5313 16.651 4.56817 16.9584 5.83332 16.9584H14.1667C15.4318 16.9584 16.4687 16.651 17.1848 15.9349C17.9009 15.2188 18.2083 14.1819 18.2083 12.9167V7.08342C18.2083 5.81826 17.9009 4.78139 17.1848 4.06528C16.4687 3.34917 15.4318 3.04175 14.1667 3.04175H5.83332Z" stroke="#797979"/>
<path d="M9.99982 10.725C9.29982 10.725 8.59149 10.5083 8.04983 10.0666L5.44149 7.98331C5.17482 7.76664 5.12483 7.37497 5.34149 7.10831C5.55816 6.84164 5.94983 6.79164 6.2165 7.00831L8.82482 9.09164C9.45816 9.59998 10.5332 9.59998 11.1665 9.09164L13.7748 7.00831C14.0415 6.79164 14.4415 6.83331 14.6498 7.10831C14.8665 7.37497 14.8248 7.77498 14.5498 7.98331L11.9415 10.0666C11.4082 10.5083 10.6998 10.725 9.99982 10.725Z" fill="#797979"/>
</svg>
