<svg width="25" height="25" viewBox="0 0 25 25" fill="none" xmlns="http://www.w3.org/2000/svg">
<path d="M21.7449 10.8538L13.587 10.8534C13.2268 10.8534 12.9348 11.1453 12.9348 11.5056V14.1116C12.9348 14.4718 13.2268 14.7638 13.587 14.7638H18.181C17.6779 16.0693 16.739 17.1627 15.5411 17.8573L17.5 21.2483C20.6423 19.431 22.5 16.2424 22.5 12.6729C22.5 12.1647 22.4626 11.8014 22.3876 11.3923C22.3307 11.0814 22.0608 10.8538 21.7449 10.8538Z" fill="#167EE6"/>
<path d="M12.5 18.6795C10.2518 18.6795 8.28914 17.4511 7.23504 15.6334L3.84418 17.5879C5.56977 20.5786 8.80235 22.5925 12.5 22.5925C14.314 22.5925 16.0256 22.1041 17.5 21.253V21.2484L15.5411 17.8573C14.6451 18.377 13.6083 18.6795 12.5 18.6795Z" fill="#12B347"/>
<path d="M17.5 21.253V21.2483L15.5411 17.8573C14.6451 18.3769 13.6083 18.6794 12.5 18.6794V22.5925C14.3139 22.5925 16.0256 22.1041 17.5 21.253Z" fill="#0F993E"/>
<path d="M6.41305 12.5925C6.41305 11.4844 6.71548 10.4476 7.23505 9.55162L3.84418 7.59717C2.98836 9.06697 2.5 10.7739 2.5 12.5925C2.5 14.4111 2.98836 16.1181 3.84418 17.5879L7.23505 15.6334C6.71548 14.7375 6.41305 13.7007 6.41305 12.5925Z" fill="#FFD500"/>
<path d="M12.5 6.50558C13.9661 6.50558 15.3127 7.02652 16.3645 7.89304C16.624 8.10679 17.0012 8.09137 17.2389 7.85367L19.0854 6.00718C19.3551 5.73749 19.3358 5.29605 19.0478 5.04613C17.2854 3.51726 14.9925 2.59253 12.5 2.59253C8.80235 2.59253 5.56977 4.60648 3.84418 7.59719L7.23504 9.55164C8.28914 7.73394 10.2518 6.50558 12.5 6.50558Z" fill="#FF4B26"/>
<path d="M16.3645 7.89304C16.624 8.10679 17.0012 8.09137 17.2389 7.85367L19.0854 6.00718C19.355 5.73749 19.3358 5.29605 19.0477 5.04613C17.2854 3.51722 14.9925 2.59253 12.5 2.59253V6.50558C13.966 6.50558 15.3127 7.02652 16.3645 7.89304Z" fill="#D93F21"/>
</svg>
