<svg width="20" height="21" viewBox="0 0 20 21" fill="none" xmlns="http://www.w3.org/2000/svg">
<path d="M15 9.05094C14.9699 9.05094 14.9386 9.03866 14.9129 9.01302C14.8873 8.98737 14.875 8.95609 14.875 8.92594V7.25928C14.875 5.92425 14.6924 4.67508 13.9337 3.76685C13.1579 2.83812 11.8854 2.38428 10 2.38428C8.11455 2.38428 6.84211 2.83812 6.06627 3.76685C5.30756 4.67508 5.125 5.92425 5.125 7.25928V8.92594C5.125 8.95609 5.11272 8.98737 5.08707 9.01302C5.06143 9.03866 5.03015 9.05094 5 9.05094C4.96985 9.05094 4.93857 9.03866 4.91293 9.01302C4.88728 8.98737 4.875 8.95609 4.875 8.92594V7.25928C4.875 6.07216 5.02312 4.79958 5.70595 3.82803C6.36327 2.89279 7.59282 2.13428 10 2.13428C12.4072 2.13428 13.6367 2.89279 14.2941 3.82803C14.9769 4.79958 15.125 6.07216 15.125 7.25928V8.92594C15.125 8.95609 15.1127 8.98737 15.0871 9.01302C15.0614 9.03866 15.0301 9.05094 15 9.05094Z" stroke="#797979"/>
<path d="M10 16.6342C8.50833 16.6342 7.29166 15.4175 7.29166 13.9259C7.29166 12.4342 8.50833 11.2175 10 11.2175C11.4917 11.2175 12.7083 12.4342 12.7083 13.9259C12.7083 15.4175 11.4917 16.6342 10 16.6342ZM10 12.4675C9.2 12.4675 8.54166 13.1259 8.54166 13.9259C8.54166 14.7259 9.2 15.3842 10 15.3842C10.8 15.3842 11.4583 14.7259 11.4583 13.9259C11.4583 13.1259 10.8 12.4675 10 12.4675Z" fill="#797979"/>
<path d="M14.1667 19.5508H5.83333C2.15833 19.5508 1.04166 18.4341 1.04166 14.7591V13.0924C1.04166 9.41745 2.15833 8.30078 5.83333 8.30078H14.1667C17.8417 8.30078 18.9583 9.41745 18.9583 13.0924V14.7591C18.9583 18.4341 17.8417 19.5508 14.1667 19.5508ZM5.83333 9.55078C2.85 9.55078 2.29166 10.1174 2.29166 13.0924V14.7591C2.29166 17.7341 2.85 18.3008 5.83333 18.3008H14.1667C17.15 18.3008 17.7083 17.7341 17.7083 14.7591V13.0924C17.7083 10.1174 17.15 9.55078 14.1667 9.55078H5.83333Z" fill="#797979"/>
</svg>
