<svg width="20" height="21" viewBox="0 0 20 21" fill="none" xmlns="http://www.w3.org/2000/svg">
<path d="M10 10.7176C7.63448 10.7176 5.70834 8.79147 5.70834 6.42594C5.70834 4.06042 7.63448 2.13428 10 2.13428C12.3655 2.13428 14.2917 4.06042 14.2917 6.42594C14.2917 8.79147 12.3655 10.7176 10 10.7176ZM10 2.38428C7.77386 2.38428 5.95834 4.1998 5.95834 6.42594C5.95834 8.65209 7.77386 10.4676 10 10.4676C12.2261 10.4676 14.0417 8.65209 14.0417 6.42594C14.0417 4.1998 12.2261 2.38428 10 2.38428Z" stroke="#797979"/>
<path d="M17.1585 19.5509C16.8168 19.5509 16.5335 19.2675 16.5335 18.9259C16.5335 16.0509 13.6001 13.7175 10.0001 13.7175C6.40013 13.7175 3.4668 16.0509 3.4668 18.9259C3.4668 19.2675 3.18346 19.5509 2.8418 19.5509C2.50013 19.5509 2.2168 19.2675 2.2168 18.9259C2.2168 15.3675 5.70846 12.4675 10.0001 12.4675C14.2918 12.4675 17.7835 15.3675 17.7835 18.9259C17.7835 19.2675 17.5001 19.5509 17.1585 19.5509Z" fill="#797979"/>
</svg>
